<svg xmlns="http://www.w3.org/2000/svg" xmlns:xlink="http://www.w3.org/1999/xlink" viewBox="0 0 50 50" width="50px" height="50px">
  <g fill="#d0d4d4" fill-rule="nonzero">
    <path d="M25 2C12.318 2 2 12.318 2 25s10.318 23 23 23 23-10.318 23-23S37.682 2 25 2zm-6.284 12.407l3.839 3.84-3.84 3.84 2.828 2.828 3.84-3.84 3.84 3.84 2.828-2.828-3.84-3.84 3.84-3.84-2.828-2.828-3.84 3.84-3.84-3.84-2.828 2.828zM25 33c-4.418 0-8-3.582-8-8s3.582-8 8-8 8 3.582 8 8-3.582 8-8 8zm0-12c-2.209 0-4 1.791-4 4s1.791 4 4 4 4-1.791 4-4-1.791-4-4-4z"/>
  </g>
</svg>